<svg width="128" height="156" viewBox="0 0 128 156" fill="none" xmlns="http://www.w3.org/2000/svg">
<path fill-rule="evenodd" clip-rule="evenodd" d="M64 156C99.3462 156 128 121.078 128 78C128 34.9218 99.3462 0 64 0C28.6538 0 0 34.9218 0 78C0 121.078 28.6538 156 64 156ZM48.5 112.5C47.3333 82.5 51 21.3 75 16.5C87.8 14.5 86.6667 51.3333 84.5 70L75 37.5C76.1666 63.8333 74.8 119.6 60 132C43 150 39 125 38.5 117C38.1 110.6 39.6667 97 40.5 91C41.3333 96.6667 44.1 108.9 48.5 112.5Z" fill="#EB1B28"/>
</svg>
