<svg width="438" height="156" viewBox="0 0 438 156" fill="none" xmlns="http://www.w3.org/2000/svg">
<path d="M0 24V12H68V26.5H63.5L58 20.5H15C18.2 35.7 51.6667 48.8333 68 53.5C69.3333 54.6667 70.3 62.7 63.5 85.5C47 118.5 25.5 115 15 114.5C6.6 114.1 1.5 110.333 0 108.5V101H5.5L11 105.5C18.1667 107 33.9 105.1 39.5 85.5C45.1 65.9 15.5 36.3333 0 24Z" fill="#EB1B28"/>
<path d="M100 36.5C89.6 49.3 77.3333 52.5 72.5 52.5C71.3 55.3 75.6667 57.6667 78 58.5C77.1667 60.3333 76.4 71.9 80 103.5C89.2 136.3 112.167 151.167 122.5 154.5C96 113.5 95 70.5 100 47C105.167 48.1667 122.5 63 122.5 78C124.9 103.6 111.167 105.667 104 103.5C108 107 112.5 112.5 132 103.5C147.6 96.3 150.5 70.5 150 58.5C120 55.5 100.5 36.5 100 36.5Z" fill="#EB1B28"/>
<path fill-rule="evenodd" clip-rule="evenodd" d="M245 156C280.346 156 309 121.078 309 78C309 34.9218 280.346 0 245 0C209.654 0 181 34.9218 181 78C181 121.078 209.654 156 245 156ZM229.5 112.5C228.333 82.5 232 21.3 256 16.5C268.8 14.5 267.667 51.3333 265.5 70L256 37.5C257.167 63.8333 255.8 119.6 241 132C224 150 220 125 219.5 117C219.1 110.6 220.667 97 221.5 91C222.333 96.6667 225.1 108.9 229.5 112.5Z" fill="white"/>
<path fill-rule="evenodd" clip-rule="evenodd" d="M183.41 115C165.511 115 151 97.3152 151 75.5C151 53.6848 165.511 36 183.41 36C201.31 36 215.82 53.6848 215.82 75.5C215.82 97.3152 201.31 115 183.41 115ZM191.26 92.9712C191.85 77.7789 189.994 46.7865 177.84 44.3558C171.358 43.343 171.932 61.9957 173.029 71.4487L177.84 54.9904C177.249 68.3259 177.941 96.5667 185.436 102.846C194.045 111.962 196.07 99.3013 196.324 95.25C196.526 92.009 195.733 85.1218 195.311 82.0833C194.889 84.953 193.488 91.1481 191.26 92.9712Z" fill="#EB1B28"/>
<path d="M283.5 105L283 50L278.5 45V43C285.3 43.8 294 40 297.5 38H305V71C305 75.4 309 73.8333 311 72.5C316.667 64 328.4 46.5 330 44.5C331.6 42.5 326.333 40.3333 323.5 39.5V37.5H343.5V39C335.5 43 322 65.5 322.5 66C329 80 347 82 347 83.5C347.8 87.1 345 99.6667 343.5 105.5C328.5 139 308.5 134.5 303.5 126C308.5 129.667 319.6 131.2 324 108C324 84.8 311.333 79 305 79V105.5L310 110.5V112H278V110.5L283.5 105Z" fill="#EB1B28"/>
<path d="M438 35.5H414.5V38.5C417.3 38.5 420.667 41.5 422 43C421.167 47.1667 417.6 59.7 410 76.5C402 92.9 393 84.3333 389.5 78C385.333 69.3333 376.7 51 375.5 47C374.3 43 379.667 40.3333 382.5 39.5V37.5H348V39.5C349.6 39.5 355.333 43.8333 358 46C358.667 46.8333 363.1 55.6 375.5 84C385.1 113.2 367.5 143.5 357.5 155C374 150.5 387 133 397.5 117C408 101 426 57 428.5 48.5C430.5 41.7 435.667 39 438 38.5V35.5Z" fill="#EB1B28"/>
<path d="M94.504 15.68C94.504 15.168 94.592 14.66 94.768 14.156C94.952 13.644 95.216 13.188 95.56 12.788C95.904 12.388 96.328 12.064 96.832 11.816C97.336 11.56 97.908 11.432 98.548 11.432C99.308 11.432 99.956 11.604 100.492 11.948C101.036 12.292 101.436 12.74 101.692 13.292L101.032 13.7C100.896 13.42 100.728 13.184 100.528 12.992C100.336 12.8 100.128 12.644 99.904 12.524C99.68 12.404 99.448 12.32 99.208 12.272C98.968 12.216 98.732 12.188 98.5 12.188C97.988 12.188 97.536 12.292 97.144 12.5C96.752 12.708 96.42 12.98 96.148 13.316C95.884 13.652 95.684 14.032 95.548 14.456C95.412 14.872 95.344 15.296 95.344 15.728C95.344 16.2 95.424 16.652 95.584 17.084C95.752 17.516 95.976 17.9 96.256 18.236C96.544 18.564 96.88 18.828 97.264 19.028C97.656 19.22 98.08 19.316 98.536 19.316C98.776 19.316 99.02 19.288 99.268 19.232C99.524 19.168 99.768 19.072 100 18.944C100.24 18.808 100.46 18.644 100.66 18.452C100.86 18.252 101.028 18.012 101.164 17.732L101.86 18.092C101.724 18.412 101.532 18.696 101.284 18.944C101.036 19.184 100.76 19.388 100.456 19.556C100.152 19.724 99.828 19.852 99.484 19.94C99.148 20.028 98.816 20.072 98.488 20.072C97.904 20.072 97.368 19.944 96.88 19.688C96.392 19.432 95.972 19.1 95.62 18.692C95.268 18.276 94.992 17.808 94.792 17.288C94.6 16.76 94.504 16.224 94.504 15.68ZM106.645 20.06C106.053 20.06 105.509 19.94 105.013 19.7C104.525 19.452 104.105 19.128 103.753 18.728C103.401 18.32 103.129 17.856 102.937 17.336C102.745 16.816 102.649 16.284 102.649 15.74C102.649 15.172 102.749 14.628 102.949 14.108C103.157 13.588 103.441 13.128 103.801 12.728C104.161 12.328 104.585 12.012 105.073 11.78C105.561 11.54 106.089 11.42 106.657 11.42C107.249 11.42 107.789 11.548 108.277 11.804C108.773 12.052 109.193 12.38 109.537 12.788C109.889 13.196 110.161 13.66 110.353 14.18C110.545 14.692 110.641 15.216 110.641 15.752C110.641 16.32 110.537 16.864 110.329 17.384C110.129 17.904 109.849 18.364 109.489 18.764C109.137 19.156 108.717 19.472 108.229 19.712C107.741 19.944 107.213 20.06 106.645 20.06ZM103.489 15.74C103.489 16.204 103.565 16.652 103.717 17.084C103.869 17.508 104.085 17.888 104.365 18.224C104.645 18.552 104.977 18.816 105.361 19.016C105.745 19.208 106.173 19.304 106.645 19.304C107.125 19.304 107.561 19.2 107.953 18.992C108.345 18.784 108.677 18.512 108.949 18.176C109.221 17.84 109.429 17.46 109.573 17.036C109.725 16.612 109.801 16.18 109.801 15.74C109.801 15.276 109.721 14.832 109.561 14.408C109.409 13.976 109.193 13.596 108.913 13.268C108.633 12.94 108.301 12.68 107.917 12.488C107.533 12.288 107.109 12.188 106.645 12.188C106.165 12.188 105.729 12.292 105.337 12.5C104.945 12.7 104.613 12.968 104.341 13.304C104.069 13.64 103.857 14.02 103.705 14.444C103.561 14.868 103.489 15.3 103.489 15.74ZM112.224 20V11.48H113.064V19.256H117.984V20H112.224ZM124.944 19.256V20H119.22V11.48H124.836V12.224H120.06V15.296H124.224V16.004H120.06V19.256H124.944ZM128.817 21.512C128.929 21.568 129.081 21.616 129.273 21.656C129.465 21.704 129.665 21.728 129.873 21.728C130.329 21.728 130.557 21.588 130.557 21.308C130.557 21.148 130.501 21.036 130.389 20.972C130.285 20.908 130.141 20.876 129.957 20.876C129.789 20.876 129.613 20.892 129.429 20.924C129.245 20.964 129.101 21.004 128.997 21.044L129.525 20.06C128.973 20.028 128.465 19.88 128.001 19.616C127.537 19.352 127.137 19.016 126.801 18.608C126.473 18.2 126.217 17.744 126.033 17.24C125.849 16.728 125.757 16.208 125.757 15.68C125.757 15.168 125.845 14.66 126.021 14.156C126.205 13.644 126.469 13.188 126.813 12.788C127.157 12.388 127.581 12.064 128.085 11.816C128.589 11.56 129.161 11.432 129.801 11.432C130.561 11.432 131.209 11.604 131.745 11.948C132.289 12.292 132.689 12.74 132.945 13.292L132.285 13.7C132.149 13.42 131.981 13.184 131.781 12.992C131.589 12.8 131.381 12.644 131.157 12.524C130.933 12.404 130.701 12.32 130.461 12.272C130.221 12.216 129.985 12.188 129.753 12.188C129.241 12.188 128.789 12.292 128.397 12.5C128.005 12.708 127.673 12.98 127.401 13.316C127.137 13.652 126.937 14.032 126.801 14.456C126.665 14.872 126.597 15.296 126.597 15.728C126.597 16.2 126.677 16.652 126.837 17.084C127.005 17.516 127.229 17.9 127.509 18.236C127.797 18.564 128.133 18.828 128.517 19.028C128.909 19.22 129.333 19.316 129.789 19.316C130.029 19.316 130.273 19.288 130.521 19.232C130.777 19.168 131.021 19.072 131.253 18.944C131.493 18.808 131.713 18.644 131.913 18.452C132.113 18.252 132.281 18.012 132.417 17.732L133.113 18.092C132.985 18.388 132.809 18.656 132.585 18.896C132.361 19.128 132.109 19.328 131.829 19.496C131.549 19.656 131.249 19.784 130.929 19.88C130.617 19.976 130.305 20.036 129.993 20.06L129.657 20.612C129.729 20.58 129.805 20.56 129.885 20.552C129.973 20.544 130.049 20.54 130.113 20.54C130.393 20.54 130.613 20.6 130.773 20.72C130.941 20.848 131.025 21.032 131.025 21.272C131.025 21.544 130.921 21.752 130.713 21.896C130.505 22.04 130.201 22.112 129.801 22.112C129.569 22.112 129.353 22.088 129.153 22.04C128.953 22 128.773 21.948 128.613 21.884L128.817 21.512ZM137.071 11.48H137.779L141.319 20H140.431L139.327 17.336H135.499L134.407 20H133.507L137.071 11.48ZM139.135 16.676L137.419 12.464L135.679 16.676H139.135ZM138.163 10.1C137.979 10.1 137.819 10.076 137.683 10.028C137.555 9.98 137.431 9.928 137.311 9.872C137.199 9.808 137.087 9.752 136.975 9.704C136.871 9.648 136.755 9.62 136.627 9.62C136.491 9.62 136.383 9.648 136.303 9.704C136.231 9.76 136.171 9.824 136.123 9.896C136.083 9.96 136.055 10.024 136.039 10.088C136.031 10.144 136.027 10.18 136.027 10.196H135.523C135.523 10.156 135.535 10.076 135.559 9.956C135.591 9.828 135.647 9.7 135.727 9.572C135.807 9.444 135.919 9.332 136.063 9.236C136.207 9.132 136.391 9.08 136.615 9.08C136.783 9.08 136.927 9.108 137.047 9.164C137.175 9.212 137.295 9.268 137.407 9.332C137.519 9.396 137.631 9.456 137.743 9.512C137.863 9.56 137.999 9.584 138.151 9.584C138.303 9.584 138.423 9.556 138.511 9.5C138.607 9.444 138.679 9.38 138.727 9.308C138.775 9.236 138.803 9.172 138.811 9.116C138.827 9.052 138.835 9.012 138.835 8.996H139.339C139.339 9.036 139.323 9.116 139.291 9.236C139.259 9.356 139.199 9.48 139.111 9.608C139.031 9.736 138.911 9.852 138.751 9.956C138.599 10.052 138.403 10.1 138.163 10.1ZM145.656 20.06C145.064 20.06 144.52 19.94 144.024 19.7C143.536 19.452 143.116 19.128 142.764 18.728C142.412 18.32 142.14 17.856 141.948 17.336C141.756 16.816 141.66 16.284 141.66 15.74C141.66 15.172 141.76 14.628 141.96 14.108C142.168 13.588 142.452 13.128 142.812 12.728C143.172 12.328 143.596 12.012 144.084 11.78C144.572 11.54 145.1 11.42 145.668 11.42C146.26 11.42 146.8 11.548 147.288 11.804C147.784 12.052 148.204 12.38 148.548 12.788C148.9 13.196 149.172 13.66 149.364 14.18C149.556 14.692 149.652 15.216 149.652 15.752C149.652 16.32 149.548 16.864 149.34 17.384C149.14 17.904 148.86 18.364 148.5 18.764C148.148 19.156 147.728 19.472 147.24 19.712C146.752 19.944 146.224 20.06 145.656 20.06ZM142.5 15.74C142.5 16.204 142.576 16.652 142.728 17.084C142.88 17.508 143.096 17.888 143.376 18.224C143.656 18.552 143.988 18.816 144.372 19.016C144.756 19.208 145.184 19.304 145.656 19.304C146.136 19.304 146.572 19.2 146.964 18.992C147.356 18.784 147.688 18.512 147.96 18.176C148.232 17.84 148.44 17.46 148.584 17.036C148.736 16.612 148.812 16.18 148.812 15.74C148.812 15.276 148.732 14.832 148.572 14.408C148.42 13.976 148.204 13.596 147.924 13.268C147.644 12.94 147.312 12.68 146.928 12.488C146.544 12.288 146.12 12.188 145.656 12.188C145.176 12.188 144.74 12.292 144.348 12.5C143.956 12.7 143.624 12.968 143.352 13.304C143.08 13.64 142.868 14.02 142.716 14.444C142.572 14.868 142.5 15.3 142.5 15.74Z" fill="#EB1B28"/>
</svg>
