<svg width="547" height="111" viewBox="0 0 547 111" fill="none" xmlns="http://www.w3.org/2000/svg">
<path d="M40.32 59.24C40.32 60.1787 40.576 61.032 41.088 61.8C41.6853 62.568 42.4533 63.08 43.392 63.336C42.4533 63.592 41.6853 64.104 41.088 64.872C40.576 65.64 40.32 66.4933 40.32 67.432V90.728C40.32 94.7387 39.3813 97.9813 37.504 100.456C35.6267 103.016 33.4507 105.021 30.976 106.472C28.5013 108.008 26.0267 109.032 23.552 109.544C21.1627 110.141 19.456 110.44 18.432 110.44C20.3093 110.269 22.016 109.587 23.552 108.392C24.832 107.368 25.984 105.789 27.008 103.656C28.1173 101.523 28.672 98.536 28.672 94.696V42.472L16.256 37.736V90.6L16.768 91.112C17.4507 91.7093 18.2187 92.0507 19.072 92.136C20.0107 92.136 20.8213 91.8373 21.504 91.24L22.528 90.344C22.528 90.7707 22.0587 91.4533 21.12 92.392C20.1813 93.3307 19.1147 94.3973 17.92 95.592C16.7253 96.7867 15.5733 98.024 14.464 99.304C13.3547 100.669 12.6293 101.992 12.288 103.272L4.608 96.104V67.56C4.608 66.6213 4.30933 65.768 3.712 65C3.11467 64.1467 2.34667 63.592 1.408 63.336C3.54133 62.7387 4.608 61.3733 4.608 59.24V14.312C4.01067 14.1413 3.41333 13.8853 2.816 13.544C2.304 13.288 1.792 12.9893 1.28 12.648C0.768 12.3067 0.341333 11.8373 0 11.24L6.784 0.999992C9.00267 3.30399 10.88 4.96799 12.416 5.992C14.0373 6.93066 15.36 7.48533 16.384 7.656C17.5787 7.91199 18.6027 7.78399 19.456 7.272C19.2 7.78399 18.9013 8.21066 18.56 8.55199C18.304 8.89333 17.9627 9.27733 17.536 9.70399C17.1093 10.0453 16.6827 10.344 16.256 10.6V34.92C17.1947 33.9813 17.92 33.0427 18.432 32.104C19.0293 31.1653 19.5413 30.312 19.968 29.544C20.3947 28.6053 20.736 27.752 20.992 26.984L21.888 27.368L39.168 34.024L40.064 34.408C40.7467 34.664 41.3867 34.7493 41.984 34.664C42.496 34.5787 43.008 34.3653 43.52 34.024C44.1173 33.5973 44.5867 32.8293 44.928 31.72C45.0133 32.744 44.8853 33.6827 44.544 34.536C44.288 35.2187 43.8187 35.9013 43.136 36.584C42.4533 37.2667 41.5147 37.736 40.32 37.992V59.24Z" fill="#EB1B28"/>
<path d="M84.888 59.496C84.888 60.4347 85.144 61.288 85.656 62.056C86.2533 62.824 87.0213 63.336 87.96 63.592H88.088C85.9547 64.1893 84.888 65.5547 84.888 67.688V89.704C81.6453 90.0453 78.9573 90.9413 76.824 92.392C74.6907 93.7573 73.0267 95.2507 71.832 96.872C70.3813 98.7493 69.272 100.84 68.504 103.144L67.608 102.76L50.328 96.104L49.304 95.72C49.304 95.72 49.0907 95.6773 48.664 95.592C48.3227 95.4213 47.896 95.3787 47.384 95.464C46.872 95.5493 46.3173 95.8053 45.72 96.232C45.208 96.5733 44.824 97.2987 44.568 98.408C44.4827 97.4693 44.6107 96.5733 44.952 95.72C45.208 95.0373 45.6347 94.3547 46.232 93.672C46.9147 92.904 47.896 92.392 49.176 92.136V67.688C49.176 65.5547 48.1093 64.1893 45.976 63.592H46.104C47.0427 63.336 47.768 62.824 48.28 62.056C48.8773 61.288 49.176 60.4347 49.176 59.496V40.68C52.4187 40.3387 55.1067 39.4427 57.24 37.992C59.3733 36.5413 61.0373 35.048 62.232 33.512C63.512 31.8907 64.3653 30.44 64.792 29.16C65.304 27.7947 65.56 27.112 65.56 27.112L66.456 27.624L83.736 34.28L84.76 34.664C84.76 34.664 84.9307 34.7493 85.272 34.92C85.6987 35.0053 86.168 35.048 86.68 35.048C87.192 34.9627 87.704 34.7067 88.216 34.28C88.8133 33.8533 89.24 33.0853 89.496 31.976C89.5813 32.9147 89.4533 33.8107 89.112 34.664C88.856 35.3467 88.3867 36.072 87.704 36.84C87.1067 37.5227 86.168 37.9493 84.888 38.12V59.496ZM73.24 42.728L60.824 37.992V87.656L73.24 92.392V42.728Z" fill="#EB1B28"/>
<path d="M122.413 31.72C123.096 31.72 123.949 31.5493 124.973 31.208C125.997 30.7813 126.594 29.8853 126.765 28.52C126.68 30.824 126.168 32.8293 125.229 34.536C124.461 36.072 123.266 37.48 121.645 38.76C120.109 39.9547 117.933 40.552 115.117 40.552C113.922 40.552 112.77 40.424 111.661 40.168C110.552 39.912 109.528 39.6133 108.589 39.272C107.65 38.9307 106.882 38.632 106.285 38.376C105.688 38.0347 105.346 37.8213 105.261 37.736V59.24C105.261 60.1787 105.517 61.032 106.029 61.8C106.626 62.568 107.394 63.08 108.333 63.336C107.394 63.592 106.626 64.1467 106.029 65C105.517 65.768 105.261 66.6213 105.261 67.56V90.6L105.773 91.112C106.456 91.7093 107.224 92.0507 108.077 92.136C109.016 92.136 109.826 91.8373 110.509 91.24L111.533 90.344C111.533 90.7707 111.064 91.4533 110.125 92.392C109.186 93.3307 108.077 94.3973 106.797 95.592C105.602 96.7867 104.45 98.024 103.341 99.304C102.232 100.669 101.506 101.992 101.165 103.272L93.613 96.104V67.56C93.613 66.6213 93.3143 65.768 92.717 65C92.1197 64.1467 91.3517 63.6347 90.413 63.464V63.336C92.5463 62.7387 93.613 61.3733 93.613 59.24V40.296C93.0157 40.1253 92.4183 39.8693 91.821 39.528C91.309 39.272 90.797 38.9733 90.285 38.632C89.773 38.2907 89.3463 37.8213 89.005 37.224L95.789 26.984C98.2637 29.7147 100.354 31.5067 102.061 32.36C103.853 33.128 105.261 33.5547 106.285 33.64C106.968 32.7867 107.522 31.976 107.949 31.208C108.461 30.44 108.888 29.7147 109.229 29.032C109.57 28.264 109.826 27.5813 109.997 26.984C111.192 27.9227 112.472 28.7333 113.837 29.416C115.032 30.0133 116.354 30.568 117.805 31.08C119.256 31.5067 120.792 31.72 122.413 31.72Z" fill="#EB1B28"/>
<path d="M154.853 31.72C155.536 31.72 156.389 31.5493 157.413 31.208C158.437 30.7813 159.034 29.8853 159.205 28.52C159.12 30.824 158.608 32.8293 157.669 34.536C156.901 36.072 155.706 37.48 154.085 38.76C152.549 39.9547 150.373 40.552 147.557 40.552C146.362 40.552 145.21 40.424 144.101 40.168C142.992 39.912 141.968 39.6133 141.029 39.272C140.09 38.9307 139.322 38.632 138.725 38.376C138.128 38.0347 137.786 37.8213 137.701 37.736V59.24C137.701 60.1787 137.957 61.032 138.469 61.8C139.066 62.568 139.834 63.08 140.773 63.336C139.834 63.592 139.066 64.1467 138.469 65C137.957 65.768 137.701 66.6213 137.701 67.56V90.6L138.213 91.112C138.896 91.7093 139.664 92.0507 140.517 92.136C141.456 92.136 142.266 91.8373 142.949 91.24L143.973 90.344C143.973 90.7707 143.504 91.4533 142.565 92.392C141.626 93.3307 140.517 94.3973 139.237 95.592C138.042 96.7867 136.89 98.024 135.781 99.304C134.672 100.669 133.946 101.992 133.605 103.272L126.053 96.104V67.56C126.053 66.6213 125.754 65.768 125.157 65C124.56 64.1467 123.792 63.6347 122.853 63.464V63.336C124.986 62.7387 126.053 61.3733 126.053 59.24V40.296C125.456 40.1253 124.858 39.8693 124.261 39.528C123.749 39.272 123.237 38.9733 122.725 38.632C122.213 38.2907 121.786 37.8213 121.445 37.224L128.229 26.984C130.704 29.7147 132.794 31.5067 134.501 32.36C136.293 33.128 137.701 33.5547 138.725 33.64C139.408 32.7867 139.962 31.976 140.389 31.208C140.901 30.44 141.328 29.7147 141.669 29.032C142.01 28.264 142.266 27.5813 142.437 26.984C143.632 27.9227 144.912 28.7333 146.277 29.416C147.472 30.0133 148.794 30.568 150.245 31.08C151.696 31.5067 153.232 31.72 154.853 31.72Z" fill="#EB1B28"/>
<path d="M194.333 59.496C194.333 60.4347 194.589 61.288 195.101 62.056C195.698 62.824 196.466 63.336 197.405 63.592H197.533C195.4 64.1893 194.333 65.5547 194.333 67.688V89.704C191.09 90.0453 188.402 90.9413 186.269 92.392C184.136 93.7573 182.472 95.2507 181.277 96.872C179.826 98.7493 178.717 100.84 177.949 103.144L177.053 102.76L159.773 96.104L158.749 95.72C158.749 95.72 158.536 95.6773 158.109 95.592C157.768 95.4213 157.341 95.3787 156.829 95.464C156.317 95.5493 155.762 95.8053 155.165 96.232C154.653 96.5733 154.269 97.2987 154.013 98.408C153.928 97.4693 154.056 96.5733 154.397 95.72C154.653 95.0373 155.08 94.3547 155.677 93.672C156.36 92.904 157.341 92.392 158.621 92.136V67.688C158.621 65.5547 157.554 64.1893 155.421 63.592H155.549C156.488 63.336 157.213 62.824 157.725 62.056C158.322 61.288 158.621 60.4347 158.621 59.496V40.68C161.864 40.3387 164.552 39.4427 166.685 37.992C168.818 36.5413 170.482 35.048 171.677 33.512C172.957 31.8907 173.81 30.44 174.237 29.16C174.749 27.7947 175.005 27.112 175.005 27.112L175.901 27.624L193.181 34.28L194.205 34.664C194.205 34.664 194.376 34.7493 194.717 34.92C195.144 35.0053 195.613 35.048 196.125 35.048C196.637 34.9627 197.149 34.7067 197.661 34.28C198.258 33.8533 198.685 33.0853 198.941 31.976C199.026 32.9147 198.898 33.8107 198.557 34.664C198.301 35.3467 197.832 36.072 197.149 36.84C196.552 37.5227 195.613 37.9493 194.333 38.12V59.496ZM182.685 42.728L170.269 37.992V87.656L182.685 92.392V42.728Z" fill="#EB1B28"/>
<path d="M231.858 31.72C232.541 31.72 233.394 31.5493 234.418 31.208C235.442 30.7813 236.039 29.8853 236.21 28.52C236.125 30.824 235.613 32.8293 234.674 34.536C233.906 36.072 232.711 37.48 231.09 38.76C229.554 39.9547 227.378 40.552 224.562 40.552C223.367 40.552 222.215 40.424 221.106 40.168C219.997 39.912 218.973 39.6133 218.034 39.272C217.095 38.9307 216.327 38.632 215.73 38.376C215.133 38.0347 214.791 37.8213 214.706 37.736V59.24C214.706 60.1787 214.962 61.032 215.474 61.8C216.071 62.568 216.839 63.08 217.778 63.336C216.839 63.592 216.071 64.1467 215.474 65C214.962 65.768 214.706 66.6213 214.706 67.56V90.6L215.218 91.112C215.901 91.7093 216.669 92.0507 217.522 92.136C218.461 92.136 219.271 91.8373 219.954 91.24L220.978 90.344C220.978 90.7707 220.509 91.4533 219.57 92.392C218.631 93.3307 217.522 94.3973 216.242 95.592C215.047 96.7867 213.895 98.024 212.786 99.304C211.677 100.669 210.951 101.992 210.61 103.272L203.058 96.104V67.56C203.058 66.6213 202.759 65.768 202.162 65C201.565 64.1467 200.797 63.6347 199.858 63.464V63.336C201.991 62.7387 203.058 61.3733 203.058 59.24V40.296C202.461 40.1253 201.863 39.8693 201.266 39.528C200.754 39.272 200.242 38.9733 199.73 38.632C199.218 38.2907 198.791 37.8213 198.45 37.224L205.234 26.984C207.709 29.7147 209.799 31.5067 211.506 32.36C213.298 33.128 214.706 33.5547 215.73 33.64C216.413 32.7867 216.967 31.976 217.394 31.208C217.906 30.44 218.333 29.7147 218.674 29.032C219.015 28.264 219.271 27.5813 219.442 26.984C220.637 27.9227 221.917 28.7333 223.282 29.416C224.477 30.0133 225.799 30.568 227.25 31.08C228.701 31.5067 230.237 31.72 231.858 31.72Z" fill="#EB1B28"/>
<path d="M280.579 82.664C283.224 82.664 285.23 82.1093 286.595 81C287.96 79.8053 289.155 78.5253 290.179 77.16C291.288 75.7093 292.398 74.3867 293.507 73.192C294.616 71.9973 296.238 71.4 298.371 71.4C296.579 71.8267 295.47 72.8507 295.043 74.472C294.616 76.008 294.403 78.0133 294.403 80.488V89.832C291.16 90.1733 288.472 91.0693 286.339 92.52C284.206 93.8853 282.499 95.3787 281.219 97C280.024 98.6213 279.171 100.072 278.659 101.352C278.232 102.632 278.019 103.272 278.019 103.272L277.123 102.76L259.843 96.104L258.819 95.848C258.819 95.848 258.606 95.8053 258.179 95.72C257.838 95.5493 257.411 95.5067 256.899 95.592C256.387 95.6773 255.832 95.9333 255.235 96.36C254.723 96.7013 254.339 97.4267 254.083 98.536C253.998 97.512 254.126 96.5733 254.467 95.72C254.723 95.0373 255.15 94.3547 255.747 93.672C256.43 92.9893 257.411 92.52 258.691 92.264V67.816C258.691 65.6827 257.624 64.3173 255.491 63.72L255.619 63.592C256.558 63.336 257.283 62.824 257.795 62.056C258.392 61.288 258.691 60.4347 258.691 59.496V40.68C261.934 40.3387 264.622 39.4853 266.755 38.12C268.888 36.6693 270.552 35.1333 271.747 33.512C273.027 31.8907 273.88 30.44 274.307 29.16C274.819 27.88 275.075 27.24 275.075 27.24L275.971 27.752L293.251 34.408L294.275 34.664C294.275 34.664 294.446 34.7493 294.787 34.92C295.214 35.0053 295.683 35.048 296.195 35.048C296.707 34.9627 297.219 34.7067 297.731 34.28C298.328 33.8533 298.755 33.0853 299.011 31.976C299.096 33 298.968 33.9387 298.627 34.792C298.371 35.4747 297.902 36.2 297.219 36.968C296.622 37.6507 295.683 38.0773 294.403 38.248V42.6C294.403 44.0507 295.128 45.0747 296.579 45.672C293.934 45.672 291.928 46.2693 290.563 47.464C289.198 48.5733 287.96 49.8533 286.851 51.304C285.827 52.6693 284.76 53.9493 283.651 55.144C282.542 56.2533 280.92 56.808 278.787 56.808C280.579 56.3813 281.688 55.4 282.115 53.864C282.542 52.2427 282.755 50.1947 282.755 47.72V42.856L270.339 37.992V87.656L282.755 92.392V85.608C282.755 84.072 282.03 83.0907 280.579 82.664Z" fill="#EB1B28"/>
<path d="M321.048 90.344C321.048 90.7707 320.579 91.4533 319.64 92.392C318.701 93.3307 317.592 94.3973 316.312 95.592C315.117 96.7867 313.965 98.024 312.856 99.304C311.747 100.669 311.021 101.992 310.68 103.272L303.128 96.104V67.56C303.128 66.6213 302.829 65.768 302.232 65C301.635 64.1467 300.867 63.6347 299.928 63.464V63.336C302.061 62.7387 303.128 61.3733 303.128 59.24V14.056C302.531 13.8853 301.933 13.6293 301.336 13.288C300.824 13.032 300.312 12.7333 299.8 12.392C299.288 12.0507 298.861 11.5813 298.52 10.984L305.304 0.743996C307.523 3.048 309.4 4.712 310.936 5.73599C312.557 6.67466 313.88 7.22933 314.904 7.39999C316.099 7.656 317.123 7.528 317.976 7.016C317.72 7.528 317.421 7.95466 317.08 8.296C316.824 8.63733 316.483 9.02133 316.056 9.448C315.629 9.78933 315.203 10.088 314.776 10.344V59.24C314.776 60.1787 315.032 61.032 315.544 61.8C316.141 62.568 316.909 63.08 317.848 63.336C316.909 63.592 316.141 64.1467 315.544 65C315.032 65.768 314.776 66.6213 314.776 67.56V90.6L315.288 91.112C315.971 91.7093 316.739 92.0507 317.592 92.136C318.531 92.136 319.341 91.8373 320.024 91.24L321.048 90.344Z" fill="#EB1B28"/>
<path d="M343.628 7.39999H351.82L339.532 23.144H335.948L343.628 7.39999ZM366.156 91.24C365.473 91.8373 364.663 92.136 363.724 92.136C362.871 92.0507 362.103 91.7093 361.42 91.112L360.908 90.6V67.816C360.908 66.8773 361.207 66.024 361.804 65.256C362.401 64.4027 363.169 63.8907 364.108 63.72L363.98 63.592C363.041 63.336 362.273 62.824 361.676 62.056C361.164 61.288 360.908 60.4347 360.908 59.496V38.248C362.188 38.0773 363.127 37.6507 363.724 36.968C364.407 36.2 364.876 35.4747 365.132 34.792C365.473 33.9387 365.601 33 365.516 31.976C365.26 33.0853 364.833 33.8533 364.236 34.28C363.724 34.7067 363.212 34.9627 362.7 35.048C362.188 35.048 361.719 35.0053 361.292 34.92C360.951 34.7493 360.78 34.664 360.78 34.664L359.756 34.408L342.476 27.752L341.58 27.24C341.58 27.24 341.324 27.88 340.812 29.16C340.385 30.44 339.532 31.8907 338.252 33.512C337.057 35.1333 335.393 36.6693 333.26 38.12C331.127 39.4853 328.439 40.3387 325.196 40.68V42.6C325.196 44.0507 324.471 45.0747 323.02 45.672C325.665 45.672 327.671 46.2693 329.036 47.464C330.401 48.5733 331.596 49.8533 332.62 51.304C333.729 52.6693 334.839 53.9493 335.948 55.144C337.143 56.2533 338.807 56.808 340.94 56.808C339.148 56.3813 337.996 55.4 337.484 53.864C337.057 52.2427 336.844 50.1947 336.844 47.72V37.992L349.26 42.856V60.136C346.7 59.88 344.439 60.4347 342.476 61.8C340.599 63.08 338.679 64.5733 336.716 66.28C334.753 67.9013 332.62 69.4373 330.316 70.888C328.097 72.2533 325.367 72.936 322.124 72.936C324.172 74.472 325.196 76.4347 325.196 78.824V92.264C323.916 92.52 322.935 92.9893 322.252 93.672C321.655 94.3547 321.228 95.0373 320.972 95.72C320.631 96.5733 320.503 97.512 320.588 98.536C320.844 97.4267 321.228 96.7013 321.74 96.36C322.337 95.9333 322.892 95.6773 323.404 95.592C323.916 95.5067 324.343 95.5493 324.684 95.72C325.111 95.8053 325.324 95.848 325.324 95.848L326.348 96.104L343.628 102.76L344.524 103.272C344.524 103.187 344.865 102.291 345.548 100.584C346.231 98.9627 347.468 97.2133 349.26 95.336L356.94 103.272C357.281 101.992 358.007 100.669 359.116 99.304C360.225 98.024 361.377 96.7867 362.572 95.592C363.767 94.3973 364.833 93.3307 365.772 92.392C366.711 91.4533 367.18 90.7707 367.18 90.344L366.156 91.24ZM349.26 92.392L336.972 87.656V73.064C337.484 71.3573 338.167 69.8213 339.02 68.456C339.959 67.0053 340.983 65.8107 342.092 64.872C343.201 63.848 344.353 63.1227 345.548 62.696C346.828 62.184 348.065 61.9707 349.26 62.056V92.392Z" fill="#EB1B28"/>
<path d="M435.645 31.976C435.73 33 435.602 33.9387 435.261 34.792C435.005 35.4747 434.536 36.2 433.853 36.968C433.256 37.6507 432.317 38.0773 431.037 38.248V42.6C431.037 44.0507 431.762 45.0747 433.213 45.672C430.568 45.672 428.562 46.2693 427.197 47.464C425.832 48.5733 424.594 49.8533 423.485 51.304C422.461 52.6693 421.394 53.9493 420.285 55.144C419.176 56.2533 417.554 56.808 415.421 56.808C417.213 56.3813 418.322 55.4 418.749 53.864C419.176 52.2427 419.389 50.1947 419.389 47.72V42.856L407.357 38.12C407.272 38.2053 407.144 38.248 406.973 38.248V58.856C406.973 60.3067 407.613 61.3733 408.893 62.056C412.136 63.848 415.592 65.5547 419.261 67.176C423.016 68.7973 426.941 69.6933 431.037 69.864V89.832C427.794 90.1733 425.106 91.0693 422.973 92.52C420.84 93.8853 419.133 95.3787 417.853 97C416.658 98.6213 415.805 100.072 415.293 101.352C414.866 102.632 414.653 103.272 414.653 103.272L413.757 102.76L396.477 96.104L395.453 95.848L395.325 95.72C395.24 95.72 395.154 95.6773 395.069 95.592C394.216 96.5307 393.49 97.4693 392.893 98.408C392.381 99.3467 391.954 100.157 391.613 100.84C391.186 101.693 390.845 102.504 390.589 103.272L389.693 102.76L372.413 96.104L371.389 95.848C371.389 95.848 371.176 95.8053 370.749 95.72C370.408 95.5493 369.981 95.5067 369.469 95.592C368.957 95.6773 368.402 95.9333 367.805 96.36C367.293 96.7013 366.909 97.4267 366.653 98.536C366.568 97.512 366.696 96.5733 367.037 95.72C367.293 95.0373 367.72 94.3547 368.317 93.672C369 92.9893 369.981 92.52 371.261 92.264V85.608C371.261 84.072 370.536 83.0907 369.085 82.664C371.73 82.664 373.736 82.1093 375.101 81C376.466 79.8053 377.661 78.5253 378.685 77.16C379.794 75.7093 380.904 74.3867 382.013 73.192C383.122 71.9973 384.744 71.4 386.877 71.4C385.17 71.8267 384.061 72.8507 383.549 74.472C383.122 76.008 382.909 78.0133 382.909 80.488V87.656L394.941 92.392C395.026 92.3067 395.112 92.264 395.197 92.264L395.325 74.6C395.325 73.2347 394.941 71.9973 394.173 70.888C393.405 69.6933 392.424 68.7973 391.229 68.2C389.864 67.5173 388.541 66.8773 387.261 66.28C385.981 65.5973 384.744 64.9573 383.549 64.36C381.074 62.9947 378.813 61.8427 376.765 60.904C374.717 59.88 372.882 59.368 371.261 59.368V40.68C374.504 40.3387 377.192 39.4853 379.325 38.12C381.458 36.6693 383.122 35.1333 384.317 33.512C385.597 31.8907 386.45 30.44 386.877 29.16C387.389 27.88 387.645 27.24 387.645 27.24L388.541 27.752L405.821 34.408L406.845 34.664C406.845 34.7493 406.888 34.792 406.973 34.792C407.058 34.792 407.101 34.8347 407.101 34.92C407.101 34.92 407.186 34.92 407.357 34.92C408.21 33.9813 408.893 33.0427 409.405 32.104C410.002 31.1653 410.472 30.3547 410.813 29.672C411.154 28.8187 411.453 28.008 411.709 27.24L412.605 27.752L429.885 34.408L430.909 34.664C430.909 34.664 431.08 34.7493 431.421 34.92C431.848 35.0053 432.317 35.048 432.829 35.048C433.341 34.9627 433.853 34.7067 434.365 34.28C434.962 33.8533 435.389 33.0853 435.645 31.976ZM395.325 42.856L382.909 37.992V58.856C382.909 60.3067 383.549 61.3733 384.829 62.056C388.072 63.848 391.528 65.5547 395.197 67.176C398.952 68.7973 402.877 69.6933 406.973 69.864V87.656L419.261 92.392L419.389 74.6C419.389 73.2347 419.005 71.9973 418.237 70.888C417.469 69.6933 416.488 68.7973 415.293 68.2C413.928 67.5173 412.605 66.8773 411.325 66.28C410.045 65.5973 408.808 64.9573 407.613 64.36C405.138 62.9947 402.877 61.8427 400.829 60.904C398.781 59.88 396.946 59.368 395.325 59.368V42.856Z" fill="#EB1B28"/>
<path d="M456.594 91.24C455.911 91.8373 455.101 92.136 454.162 92.136C453.309 92.0507 452.541 91.7093 451.858 91.112L451.346 90.6V67.56C451.346 66.6213 451.602 65.768 452.114 65C452.711 64.1467 453.479 63.592 454.418 63.336C453.479 63.08 452.711 62.568 452.114 61.8C451.602 61.032 451.346 60.1787 451.346 59.24V36.584C451.773 36.328 452.199 36.0293 452.626 35.688C453.053 35.2613 453.394 34.8773 453.65 34.536C453.991 34.1947 454.29 33.768 454.546 33.256C453.693 33.6827 452.669 33.768 451.474 33.512C450.45 33.3413 449.127 32.7867 447.506 31.848C445.97 30.9093 444.093 29.288 441.874 26.984L435.09 37.224C435.431 37.8213 435.858 38.2907 436.37 38.632C436.882 38.9733 437.394 39.272 437.906 39.528C438.503 39.8693 439.101 40.0827 439.698 40.168V59.24C439.698 61.3733 438.631 62.7387 436.498 63.336V63.464C437.437 63.6347 438.205 64.1467 438.802 65C439.399 65.768 439.698 66.6213 439.698 67.56V96.104L447.25 103.272C447.591 101.992 448.317 100.669 449.426 99.304C450.535 98.024 451.687 96.7867 452.882 95.592C454.162 94.3973 455.271 93.3307 456.21 92.392C457.149 91.4533 457.618 90.7707 457.618 90.344L456.594 91.24ZM445.458 21.48L438.546 14.568L445.458 7.656L452.37 14.568L445.458 21.48Z" fill="#EB1B28"/>
<path d="M483.654 82.664C486.299 82.664 488.305 82.1093 489.67 81C491.035 79.8053 492.23 78.5253 493.254 77.16C494.363 75.7093 495.473 74.3867 496.582 73.192C497.691 71.9973 499.313 71.4 501.446 71.4C499.654 71.8267 498.545 72.8507 498.118 74.472C497.691 76.008 497.478 78.0133 497.478 80.488V89.832C494.235 90.1733 491.547 91.0693 489.414 92.52C487.281 93.8853 485.574 95.3787 484.294 97C483.099 98.6213 482.246 100.072 481.734 101.352C481.307 102.632 481.094 103.272 481.094 103.272L480.198 102.76L462.918 96.104L461.894 95.848C461.894 95.848 461.681 95.8053 461.254 95.72C460.913 95.5493 460.486 95.5067 459.974 95.592C459.462 95.6773 458.907 95.9333 458.31 96.36C457.798 96.7013 457.414 97.4267 457.158 98.536C457.073 97.512 457.201 96.5733 457.542 95.72C457.798 95.0373 458.225 94.3547 458.822 93.672C459.505 92.9893 460.486 92.52 461.766 92.264V67.816C461.766 65.6827 460.699 64.3173 458.566 63.72L458.694 63.592C459.633 63.336 460.358 62.824 460.87 62.056C461.467 61.288 461.766 60.4347 461.766 59.496V40.68C465.009 40.3387 467.697 39.4853 469.83 38.12C471.963 36.6693 473.627 35.1333 474.822 33.512C476.102 31.8907 476.955 30.44 477.382 29.16C477.894 27.88 478.15 27.24 478.15 27.24L479.046 27.752L496.326 34.408L497.35 34.664C497.35 34.664 497.521 34.7493 497.862 34.92C498.289 35.0053 498.758 35.048 499.27 35.048C499.782 34.9627 500.294 34.7067 500.806 34.28C501.403 33.8533 501.83 33.0853 502.086 31.976C502.171 33 502.043 33.9387 501.702 34.792C501.446 35.4747 500.977 36.2 500.294 36.968C499.697 37.6507 498.758 38.0773 497.478 38.248V42.6C497.478 44.0507 498.203 45.0747 499.654 45.672C497.009 45.672 495.003 46.2693 493.638 47.464C492.273 48.5733 491.035 49.8533 489.926 51.304C488.902 52.6693 487.835 53.9493 486.726 55.144C485.617 56.2533 483.995 56.808 481.862 56.808C483.654 56.3813 484.763 55.4 485.19 53.864C485.617 52.2427 485.83 50.1947 485.83 47.72V42.856L473.414 37.992V87.656L485.83 92.392V85.608C485.83 84.072 485.105 83.0907 483.654 82.664Z" fill="#EB1B28"/>
<path d="M542.043 59.496C542.043 60.4347 542.299 61.288 542.811 62.056C543.408 62.824 544.176 63.336 545.115 63.592H545.243C543.11 64.1893 542.043 65.5547 542.043 67.688V89.704C538.8 90.0453 536.112 90.9413 533.979 92.392C531.846 93.7573 530.182 95.2507 528.987 96.872C527.536 98.7493 526.427 100.84 525.659 103.144L524.763 102.76L507.483 96.104L506.459 95.72C506.459 95.72 506.246 95.6773 505.819 95.592C505.478 95.4213 505.051 95.3787 504.539 95.464C504.027 95.5493 503.472 95.8053 502.875 96.232C502.363 96.5733 501.979 97.2987 501.723 98.408C501.638 97.4693 501.766 96.5733 502.107 95.72C502.363 95.0373 502.79 94.3547 503.387 93.672C504.07 92.904 505.051 92.392 506.331 92.136V67.688C506.331 65.5547 505.264 64.1893 503.131 63.592H503.259C504.198 63.336 504.923 62.824 505.435 62.056C506.032 61.288 506.331 60.4347 506.331 59.496V40.68C509.574 40.3387 512.262 39.4427 514.395 37.992C516.528 36.5413 518.192 35.048 519.387 33.512C520.667 31.8907 521.52 30.44 521.947 29.16C522.459 27.7947 522.715 27.112 522.715 27.112L523.611 27.624L540.891 34.28L541.915 34.664C541.915 34.664 542.086 34.7493 542.427 34.92C542.854 35.0053 543.323 35.048 543.835 35.048C544.347 34.9627 544.859 34.7067 545.371 34.28C545.968 33.8533 546.395 33.0853 546.651 31.976C546.736 32.9147 546.608 33.8107 546.267 34.664C546.011 35.3467 545.542 36.072 544.859 36.84C544.262 37.5227 543.323 37.9493 542.043 38.12V59.496ZM530.395 42.728L517.979 37.992V87.656L530.395 92.392V42.728Z" fill="#EB1B28"/>
</svg>
